<svg xmlns="http://www.w3.org/2000/svg" width="700" height="330" viewBox="0 0 700 330" style="max-width: 100%; height: auto">
  <path d="M73.9,39.56v11.5h-25.44v28.19h-11.56v-28.19H11.51v-11.5h25.38V13h11.56v26.57h25.44Z" fill="#111827"/>
  <path d="M85.52,51.06v-11.5h67.82v11.5h-67.82Z" fill="#111827"/>
  <path d="M162.66,51.06v-11.5h67.82v11.5h-67.82Z" fill="#111827"/>
  <path d="M239.17,51.06v-11.5h67.82v11.5h-67.82Z" fill="#111827"/>
  <path d="M316,51.06v-11.5h67.82v11.5h-67.82Z" fill="#111827"/>
  <path d="M392.82,51.06v-11.5h67.82v11.5h-67.82Z" fill="#111827"/>
  <path d="M469.64,51.06v-11.5h67.82v11.5h-67.82Z" fill="#111827"/>
  <path d="M546.47,51.06v-11.5h67.82v11.5h-67.82Z" fill="#111827"/>
  <path d="M688.49,39.56v11.5h-25.44v28.19h-11.56v-28.19h-25.38v-11.5h25.38V13h11.56v26.57h25.44Z" fill="#111827"/>
  <path d="M168.47,116.24h27.07c3.75.04,7.42.53,11,1.47,3.58.94,6.77,2.39,9.56,4.34,2.79,1.96,5.02,4.46,6.69,7.5,1.67,3.04,2.48,6.69,2.44,10.94-.04,2.38-.43,4.54-1.16,6.5-.73,1.96-1.72,3.71-2.97,5.25-1.29,1.58-2.72,2.92-4.28,4-1.56,1.08-3.45,2.1-5.66,3.06v.19c2.29.54,4.5,1.52,6.63,2.94,2.13,1.42,3.88,2.98,5.25,4.69,1.46,1.88,2.59,3.98,3.41,6.31.81,2.33,1.22,4.86,1.22,7.56.04,4.25-.77,8-2.44,11.25-1.67,3.25-3.9,5.96-6.69,8.13-2.79,2.21-6.01,3.9-9.66,5.06-3.65,1.17-7.41,1.77-11.28,1.81h-29.13v-91.01ZM196.23,155.06c2.17-.04,4.29-.38,6.38-1.03,2.08-.65,3.94-1.59,5.56-2.84,1.63-1.21,2.94-2.71,3.94-4.5,1-1.79,1.5-3.88,1.5-6.25,0-2.54-.49-4.71-1.47-6.5-.98-1.79-2.28-3.27-3.91-4.44-1.67-1.13-3.57-1.96-5.72-2.5-2.15-.54-4.34-.83-6.59-.88h-15.81v28.94h16.13ZM180.1,197.44h17.82c2.42-.04,4.71-.45,6.88-1.22,2.17-.77,4.08-1.84,5.75-3.22,1.67-1.38,2.99-3.06,3.97-5.06.98-2,1.47-4.27,1.47-6.81.04-2.58-.39-4.88-1.28-6.88-.9-2-2.14-3.71-3.72-5.13-1.58-1.38-3.44-2.44-5.56-3.19s-4.42-1.17-6.88-1.25h-18.44v32.76Z" fill="#111827"/>
  <path d="M244.3,159.22c1.42-4.19,3.46-7.82,6.13-10.91,2.63-3.08,5.83-5.51,9.63-7.28,3.79-1.77,8.06-2.66,12.81-2.66s9.1.89,12.91,2.66c3.81,1.77,7.05,4.2,9.72,7.28,2.63,3.08,4.65,6.72,6.06,10.91,1.42,4.19,2.13,8.72,2.13,13.6v1.38c0,4.88-.71,9.4-2.13,13.56-1.42,4.17-3.44,7.79-6.06,10.88-2.67,3.08-5.9,5.5-9.69,7.25-3.79,1.75-8.06,2.63-12.81,2.63s-9.1-.88-12.91-2.63-7.03-4.17-9.66-7.25c-2.67-3.08-4.71-6.71-6.13-10.88-1.42-4.17-2.13-8.69-2.13-13.56v-1.38c0-4.88.71-9.41,2.13-13.6ZM254.92,183.72c.79,3.02,2,5.68,3.63,7.97,1.58,2.29,3.58,4.11,6,5.44,2.42,1.33,5.23,2,8.44,2s5.95-.67,8.34-2c2.4-1.33,4.41-3.15,6.03-5.44,1.58-2.29,2.77-4.95,3.56-7.97.79-3.02,1.19-6.2,1.19-9.53v-1.38c0-3.29-.41-6.45-1.22-9.47-.81-3.02-2.01-5.68-3.59-7.97-1.63-2.29-3.64-4.11-6.03-5.47-2.4-1.35-5.2-2.03-8.41-2.03s-6,.68-8.38,2.03c-2.38,1.35-4.36,3.18-5.94,5.47-1.63,2.29-2.83,4.95-3.63,7.97-.79,3.02-1.19,6.18-1.19,9.47v1.38c0,3.33.4,6.51,1.19,9.53Z" fill="#111827"/>
  <path d="M368.25,139.62h13.56l-25.19,33.44,25.88,34.19h-13.38l-18.69-25.75-18.69,25.75h-13.5l25.88-34.19-25.19-33.44h13.38l17.88,25.07,18.07-25.07Z" fill="#111827"/>
  <path d="M415.85,206.07c-3.98-1.63-7.39-3.9-10.22-6.81-2.83-2.92-5.04-6.38-6.63-10.38-1.58-4-2.38-8.35-2.38-13.06v-2.63c0-5.46.88-10.35,2.63-14.66,1.75-4.31,4.08-7.97,7-10.97,2.88-2.96,6.16-5.23,9.85-6.81,3.69-1.58,7.47-2.38,11.35-2.38,4.88,0,9.14.84,12.78,2.53,3.65,1.69,6.68,4.01,9.1,6.97,2.42,3,4.22,6.52,5.41,10.56,1.19,4.04,1.78,8.42,1.78,13.13v5.19h-48.32v.44c.29,3.29.95,6.19,1.97,8.69,1.02,2.5,2.43,4.71,4.22,6.63,1.83,2.04,4.04,3.65,6.63,4.81,2.58,1.17,5.44,1.75,8.56,1.75,4.13,0,7.79-.83,11-2.5,3.21-1.67,5.88-3.88,8-6.63l7.06,5.5c-2.25,3.42-5.62,6.45-10.1,9.1-4.48,2.65-10.01,3.97-16.6,3.97-4.75,0-9.12-.81-13.1-2.44ZM420.82,149.15c-2.08.85-3.96,2.09-5.63,3.72-1.67,1.67-3.07,3.7-4.22,6.09-1.15,2.4-1.95,5.16-2.41,8.28h36.38v-.56c0-2.08-.4-4.32-1.19-6.72-.79-2.4-1.9-4.47-3.31-6.22-1.42-1.75-3.2-3.17-5.34-4.25-2.15-1.08-4.7-1.63-7.66-1.63-2.33,0-4.54.43-6.63,1.28Z" fill="#111827"/>
  <path d="M503.27,139.62h25.75v8.94h-25.75v36.76c0,2.63.33,4.79,1,6.5.67,1.71,1.58,3.06,2.75,4.06,1.17,1.04,2.51,1.77,4.03,2.19,1.52.42,3.14.63,4.84.63,1.25,0,2.54-.07,3.88-.22,1.33-.15,2.65-.32,3.94-.53,1.25-.21,2.43-.43,3.53-.66,1.1-.23,2.01-.43,2.72-.59l1.63,8.19c-.96.58-2.13,1.09-3.5,1.53s-2.88.8-4.5,1.09c-1.63.33-3.34.58-5.16.75-1.81.17-3.62.25-5.41.25-3,0-5.8-.43-8.41-1.28-2.6-.85-4.87-2.22-6.78-4.09-1.92-1.83-3.43-4.22-4.53-7.16-1.1-2.94-1.66-6.49-1.66-10.66v-36.76h-17.75v-8.94h17.75v-16.38h11.63v16.38Z" fill="#111827"/>
  <path d="M36.89,238.25V91.75h11.56v146.49h-11.56Z" fill="#111827"/>
  <path d="M651.51,238.25V91.75h11.56v146.49h-11.56Z" fill="#111827"/>
  <path d="M73.9,277.31v11.5h-25.44v28.19h-11.56v-28.19H11.51v-11.5h25.38v-26.57h11.56v26.57h25.44Z" fill="#111827"/>
  <path d="M85.52,288.81v-11.5h67.82v11.5h-67.82Z" fill="#111827"/>
  <path d="M162.35,288.81v-11.5h67.82v11.5h-67.82Z" fill="#111827"/>
  <path d="M239.17,288.81v-11.5h67.82v11.5h-67.82Z" fill="#111827"/>
  <path d="M316,288.81v-11.5h67.82v11.5h-67.82Z" fill="#111827"/>
  <path d="M392.82,288.81v-11.5h67.82v11.5h-67.82Z" fill="#111827"/>
  <path d="M469.64,288.81v-11.5h67.82v11.5h-67.82Z" fill="#111827"/>
  <path d="M546.47,288.81v-11.5h67.82v11.5h-67.82Z" fill="#111827"/>
  <path d="M688.49,277.31v11.5h-25.44v28.19h-11.56v-28.19h-25.38v-11.5h25.38v-26.57h11.56v26.57h25.44Z" fill="#111827"/>
</svg>